<?xml version="1.0" encoding="UTF-8" standalone="no"?>
<!DOCTYPE svg PUBLIC "-//W3C//DTD SVG 1.1//EN"
 "http://www.w3.org/Graphics/SVG/1.1/DTD/svg11.dtd">
<!-- Generated by graphviz version 2.38.0 (20140413.2041)
 -->
<!-- Title: controllers_diagram Pages: 1 -->
<svg width="511pt" height="598pt"
 viewBox="0.00 0.00 511.00 598.00" xmlns="http://www.w3.org/2000/svg" xmlns:xlink="http://www.w3.org/1999/xlink">
<g id="graph0" class="graph" transform="scale(1 1) rotate(0) translate(242 356.5)">
<title>controllers_diagram</title>
<polygon fill="none" stroke="none" points="-242,241.5 -242,-356.5 269,-356.5 269,241.5 -242,241.5"/>
<!-- _diagram_info -->
<g id="node1" class="node"><title>_diagram_info</title>
<text text-anchor="start" x="8" y="157.4" font-family="Times,serif" font-size="13.00">Controllers diagram</text>
<text text-anchor="start" x="8" y="171.4" font-family="Times,serif" font-size="13.00">Date: Feb 07 2019 &#45; 22:57</text>
<text text-anchor="start" x="8" y="185.4" font-family="Times,serif" font-size="13.00">Migration version: 20190207163126</text>
<text text-anchor="start" x="8" y="199.4" font-family="Times,serif" font-size="13.00">Generated by RailRoady 1.5.3</text>
<text text-anchor="start" x="8" y="213.4" font-family="Times,serif" font-size="13.00">http://railroady.prestonlee.com</text>
</g>
<!-- QuestionsController -->
<g id="node2" class="node"><title>QuestionsController</title>
<path fill="none" stroke="black" d="M114,101.5C114,101.5 216,101.5 216,101.5 222,101.5 228,95.5 228,89.5 228,89.5 228,-99.5 228,-99.5 228,-105.5 222,-111.5 216,-111.5 216,-111.5 114,-111.5 114,-111.5 108,-111.5 102,-105.5 102,-99.5 102,-99.5 102,89.5 102,89.5 102,95.5 108,101.5 114,101.5"/>
<text text-anchor="middle" x="165" y="-96.3" font-family="Times,serif" font-size="14.00">QuestionsController</text>
<polyline fill="none" stroke="black" points="102,-88.5 228,-88.5 "/>
<text text-anchor="start" x="110" y="-73.3" font-family="Times,serif" font-size="14.00">create</text>
<text text-anchor="start" x="110" y="-58.3" font-family="Times,serif" font-size="14.00">destroy</text>
<text text-anchor="start" x="110" y="-43.3" font-family="Times,serif" font-size="14.00">edit</text>
<text text-anchor="start" x="110" y="-28.3" font-family="Times,serif" font-size="14.00">index</text>
<text text-anchor="start" x="110" y="-13.3" font-family="Times,serif" font-size="14.00">new</text>
<text text-anchor="start" x="110" y="1.7" font-family="Times,serif" font-size="14.00">show</text>
<text text-anchor="start" x="110" y="16.7" font-family="Times,serif" font-size="14.00">update</text>
<polyline fill="none" stroke="black" points="102,24.5 228,24.5 "/>
<polyline fill="none" stroke="black" points="102,48.5 228,48.5 "/>
<text text-anchor="start" x="110" y="63.7" font-family="Times,serif" font-size="14.00">_layout</text>
<text text-anchor="start" x="110" y="78.7" font-family="Times,serif" font-size="14.00">find_question</text>
<text text-anchor="start" x="110" y="93.7" font-family="Times,serif" font-size="14.00">question_parametrs</text>
</g>
<!-- PagesController -->
<g id="node3" class="node"><title>PagesController</title>
<path fill="none" stroke="black" d="M-209,-221.5C-209,-221.5 -129,-221.5 -129,-221.5 -123,-221.5 -117,-227.5 -117,-233.5 -117,-233.5 -117,-302.5 -117,-302.5 -117,-308.5 -123,-314.5 -129,-314.5 -129,-314.5 -209,-314.5 -209,-314.5 -215,-314.5 -221,-308.5 -221,-302.5 -221,-302.5 -221,-233.5 -221,-233.5 -221,-227.5 -215,-221.5 -209,-221.5"/>
<text text-anchor="middle" x="-169" y="-299.3" font-family="Times,serif" font-size="14.00">PagesController</text>
<polyline fill="none" stroke="black" points="-221,-291.5 -117,-291.5 "/>
<text text-anchor="start" x="-213" y="-276.3" font-family="Times,serif" font-size="14.00">index</text>
<polyline fill="none" stroke="black" points="-221,-268.5 -117,-268.5 "/>
<polyline fill="none" stroke="black" points="-221,-244.5 -117,-244.5 "/>
<text text-anchor="start" x="-213" y="-229.3" font-family="Times,serif" font-size="14.00">_layout</text>
</g>
<!-- UserparametrsController -->
<g id="node4" class="node"><title>UserparametrsController</title>
<path fill="none" stroke="black" d="M-73,-136C-73,-136 55,-136 55,-136 61,-136 67,-142 67,-148 67,-148 67,-292 67,-292 67,-298 61,-304 55,-304 55,-304 -73,-304 -73,-304 -79,-304 -85,-298 -85,-292 -85,-292 -85,-148 -85,-148 -85,-142 -79,-136 -73,-136"/>
<text text-anchor="middle" x="-9" y="-288.8" font-family="Times,serif" font-size="14.00">UserparametrsController</text>
<polyline fill="none" stroke="black" points="-85,-281 67,-281 "/>
<text text-anchor="start" x="-77" y="-265.8" font-family="Times,serif" font-size="14.00">create</text>
<text text-anchor="start" x="-77" y="-250.8" font-family="Times,serif" font-size="14.00">edit</text>
<text text-anchor="start" x="-77" y="-235.8" font-family="Times,serif" font-size="14.00">new</text>
<text text-anchor="start" x="-77" y="-220.8" font-family="Times,serif" font-size="14.00">show</text>
<text text-anchor="start" x="-77" y="-205.8" font-family="Times,serif" font-size="14.00">update</text>
<polyline fill="none" stroke="black" points="-85,-198 67,-198 "/>
<polyline fill="none" stroke="black" points="-85,-174 67,-174 "/>
<text text-anchor="start" x="-77" y="-158.8" font-family="Times,serif" font-size="14.00">_layout</text>
<text text-anchor="start" x="-77" y="-143.8" font-family="Times,serif" font-size="14.00">profile_parametrs</text>
</g>
<!-- ApplicationController -->
<g id="node5" class="node"><title>ApplicationController</title>
<path fill="none" stroke="black" d="M-226,237C-226,237 -114,237 -114,237 -108,237 -102,231 -102,225 -102,225 -102,155 -102,155 -102,149 -108,143 -114,143 -114,143 -226,143 -226,143 -232,143 -238,149 -238,155 -238,155 -238,225 -238,225 -238,231 -232,237 -226,237"/>
<text text-anchor="middle" x="-170" y="158.2" font-family="Times,serif" font-size="14.00">ApplicationController</text>
<polyline fill="none" stroke="black" points="-238,166 -102,166 "/>
<polyline fill="none" stroke="black" points="-238,190 -102,190 "/>
<polyline fill="none" stroke="black" points="-238,214 -102,214 "/>
<text text-anchor="start" x="-230" y="229.2" font-family="Times,serif" font-size="14.00">_layout</text>
</g>
<!-- ImagesController -->
<g id="node6" class="node"><title>ImagesController</title>
<path fill="none" stroke="black" d="M165,-154C165,-154 253,-154 253,-154 259,-154 265,-160 265,-166 265,-166 265,-340 265,-340 265,-346 259,-352 253,-352 253,-352 165,-352 165,-352 159,-352 153,-346 153,-340 153,-340 153,-166 153,-166 153,-160 159,-154 165,-154"/>
<text text-anchor="middle" x="209" y="-336.8" font-family="Times,serif" font-size="14.00">ImagesController</text>
<polyline fill="none" stroke="black" points="153,-329 265,-329 "/>
<text text-anchor="start" x="161" y="-313.8" font-family="Times,serif" font-size="14.00">create</text>
<text text-anchor="start" x="161" y="-298.8" font-family="Times,serif" font-size="14.00">destroy</text>
<text text-anchor="start" x="161" y="-283.8" font-family="Times,serif" font-size="14.00">edit</text>
<text text-anchor="start" x="161" y="-268.8" font-family="Times,serif" font-size="14.00">index</text>
<text text-anchor="start" x="161" y="-253.8" font-family="Times,serif" font-size="14.00">new</text>
<text text-anchor="start" x="161" y="-238.8" font-family="Times,serif" font-size="14.00">show</text>
<text text-anchor="start" x="161" y="-223.8" font-family="Times,serif" font-size="14.00">update</text>
<polyline fill="none" stroke="black" points="153,-216 265,-216 "/>
<polyline fill="none" stroke="black" points="153,-192 265,-192 "/>
<text text-anchor="start" x="161" y="-176.8" font-family="Times,serif" font-size="14.00">_layout</text>
<text text-anchor="start" x="161" y="-161.8" font-family="Times,serif" font-size="14.00">image_parametrs</text>
</g>
<!-- QuestioncommentsController -->
<g id="node7" class="node"><title>QuestioncommentsController</title>
<path fill="none" stroke="black" d="M-90,101C-90,101 64,101 64,101 70,101 76,95 76,89 76,89 76,-85 76,-85 76,-91 70,-97 64,-97 64,-97 -90,-97 -90,-97 -96,-97 -102,-91 -102,-85 -102,-85 -102,89 -102,89 -102,95 -96,101 -90,101"/>
<text text-anchor="middle" x="-13" y="-81.8" font-family="Times,serif" font-size="14.00">QuestioncommentsController</text>
<polyline fill="none" stroke="black" points="-102,-74 76,-74 "/>
<text text-anchor="start" x="-94" y="-58.8" font-family="Times,serif" font-size="14.00">create</text>
<text text-anchor="start" x="-94" y="-43.8" font-family="Times,serif" font-size="14.00">destroy</text>
<text text-anchor="start" x="-94" y="-28.8" font-family="Times,serif" font-size="14.00">edit</text>
<text text-anchor="start" x="-94" y="-13.8" font-family="Times,serif" font-size="14.00">new</text>
<text text-anchor="start" x="-94" y="1.2" font-family="Times,serif" font-size="14.00">show</text>
<text text-anchor="start" x="-94" y="16.2" font-family="Times,serif" font-size="14.00">update</text>
<polyline fill="none" stroke="black" points="-102,24 76,24 "/>
<polyline fill="none" stroke="black" points="-102,48 76,48 "/>
<text text-anchor="start" x="-94" y="63.2" font-family="Times,serif" font-size="14.00">_layout</text>
<text text-anchor="start" x="-94" y="78.2" font-family="Times,serif" font-size="14.00">comment_parametrs</text>
<text text-anchor="start" x="-94" y="93.2" font-family="Times,serif" font-size="14.00">set_question</text>
</g>
</g>
</svg>
