<?xml version="1.0" encoding="UTF-8" standalone="no"?>
<!DOCTYPE svg PUBLIC "-//W3C//DTD SVG 1.1//EN"
 "http://www.w3.org/Graphics/SVG/1.1/DTD/svg11.dtd">
<!-- Generated by graphviz version 2.38.0 (20140413.2041)
 -->
<!-- Title: models_diagram Pages: 1 -->
<svg width="830pt" height="566pt"
 viewBox="0.00 0.00 830.34 566.00" xmlns="http://www.w3.org/2000/svg" xmlns:xlink="http://www.w3.org/1999/xlink">
<g id="graph0" class="graph" transform="scale(1 1) rotate(0) translate(4 562)">
<title>models_diagram</title>
<polygon fill="none" stroke="none" points="-4,4 -4,-562 826.343,-562 826.343,4 -4,4"/>
<!-- _diagram_info -->
<g id="node1" class="node"><title>_diagram_info</title>
<text text-anchor="start" x="8" y="-499.1" font-family="Times,serif" font-size="13.00">Models diagram</text>
<text text-anchor="start" x="8" y="-485.1" font-family="Times,serif" font-size="13.00">Date: Feb 07 2019 &#45; 22:57</text>
<text text-anchor="start" x="8" y="-471.1" font-family="Times,serif" font-size="13.00">Migration version: 20190207163126</text>
<text text-anchor="start" x="8" y="-457.1" font-family="Times,serif" font-size="13.00">Generated by RailRoady 1.5.3</text>
<text text-anchor="start" x="8" y="-443.1" font-family="Times,serif" font-size="13.00">http://railroady.prestonlee.com</text>
</g>
<!-- Question -->
<g id="node2" class="node"><title>Question</title>
<path fill="none" stroke="black" d="M126.5,-196C126.5,-196 233.5,-196 233.5,-196 239.5,-196 245.5,-202 245.5,-208 245.5,-208 245.5,-305 245.5,-305 245.5,-311 239.5,-317 233.5,-317 233.5,-317 126.5,-317 126.5,-317 120.5,-317 114.5,-311 114.5,-305 114.5,-305 114.5,-208 114.5,-208 114.5,-202 120.5,-196 126.5,-196"/>
<text text-anchor="middle" x="180" y="-301.8" font-family="Times,serif" font-size="14.00">Question</text>
<polyline fill="none" stroke="black" points="114.5,-294 245.5,-294 "/>
<text text-anchor="start" x="122.5" y="-278.8" font-family="Times,serif" font-size="14.00">id :INTEGER</text>
<text text-anchor="start" x="122.5" y="-263.8" font-family="Times,serif" font-size="14.00">title :varchar</text>
<text text-anchor="start" x="122.5" y="-248.8" font-family="Times,serif" font-size="14.00">body :varchar</text>
<text text-anchor="start" x="122.5" y="-233.8" font-family="Times,serif" font-size="14.00">user_id :integer</text>
<text text-anchor="start" x="122.5" y="-218.8" font-family="Times,serif" font-size="14.00">created_at :datetime</text>
<text text-anchor="start" x="122.5" y="-203.8" font-family="Times,serif" font-size="14.00">updated_at :datetime</text>
</g>
<!-- QuestionComment -->
<g id="node3" class="node"><title>QuestionComment</title>
<path fill="none" stroke="black" d="M173.5,-0.5C173.5,-0.5 280.5,-0.5 280.5,-0.5 286.5,-0.5 292.5,-6.5 292.5,-12.5 292.5,-12.5 292.5,-109.5 292.5,-109.5 292.5,-115.5 286.5,-121.5 280.5,-121.5 280.5,-121.5 173.5,-121.5 173.5,-121.5 167.5,-121.5 161.5,-115.5 161.5,-109.5 161.5,-109.5 161.5,-12.5 161.5,-12.5 161.5,-6.5 167.5,-0.5 173.5,-0.5"/>
<text text-anchor="middle" x="227" y="-106.3" font-family="Times,serif" font-size="14.00">QuestionComment</text>
<polyline fill="none" stroke="black" points="161.5,-98.5 292.5,-98.5 "/>
<text text-anchor="start" x="169.5" y="-83.3" font-family="Times,serif" font-size="14.00">id :INTEGER</text>
<text text-anchor="start" x="169.5" y="-68.3" font-family="Times,serif" font-size="14.00">question_id :varchar</text>
<text text-anchor="start" x="169.5" y="-53.3" font-family="Times,serif" font-size="14.00">body :varchar</text>
<text text-anchor="start" x="169.5" y="-38.3" font-family="Times,serif" font-size="14.00">user_id :integer</text>
<text text-anchor="start" x="169.5" y="-23.3" font-family="Times,serif" font-size="14.00">created_at :datetime</text>
<text text-anchor="start" x="169.5" y="-8.3" font-family="Times,serif" font-size="14.00">updated_at :datetime</text>
</g>
<!-- Question&#45;&gt;QuestionComment -->
<g id="edge1" class="edge"><title>Question&#45;&gt;QuestionComment</title>
<path fill="none" stroke="#f6f6ab" d="M196.389,-188.025C200.83,-169.744 205.644,-149.924 210.111,-131.532"/>
<ellipse fill="none" stroke="#f6f6ab" cx="195.429" cy="-191.978" rx="4.00001" ry="4.00001"/>
<polygon fill="#f6f6ab" stroke="#f6f6ab" points="210.121,-131.489 216.855,-122.834 211.302,-126.63 212.482,-121.771 212.482,-121.771 212.482,-121.771 211.302,-126.63 208.109,-120.709 210.121,-131.489 210.121,-131.489"/>
</g>
<!-- AdminUser -->
<g id="node4" class="node"><title>AdminUser</title>
<path fill="none" stroke="black" d="M462,-399C462,-399 638,-399 638,-399 644,-399 650,-405 650,-411 650,-411 650,-538 650,-538 650,-544 644,-550 638,-550 638,-550 462,-550 462,-550 456,-550 450,-544 450,-538 450,-538 450,-411 450,-411 450,-405 456,-399 462,-399"/>
<text text-anchor="middle" x="550" y="-534.8" font-family="Times,serif" font-size="14.00">AdminUser</text>
<polyline fill="none" stroke="black" points="450,-527 650,-527 "/>
<text text-anchor="start" x="458" y="-511.8" font-family="Times,serif" font-size="14.00">id :INTEGER</text>
<text text-anchor="start" x="458" y="-496.8" font-family="Times,serif" font-size="14.00">email :varchar</text>
<text text-anchor="start" x="458" y="-481.8" font-family="Times,serif" font-size="14.00">encrypted_password :varchar</text>
<text text-anchor="start" x="458" y="-466.8" font-family="Times,serif" font-size="14.00">reset_password_token :varchar</text>
<text text-anchor="start" x="458" y="-451.8" font-family="Times,serif" font-size="14.00">reset_password_sent_at :datetime</text>
<text text-anchor="start" x="458" y="-436.8" font-family="Times,serif" font-size="14.00">remember_created_at :datetime</text>
<text text-anchor="start" x="458" y="-421.8" font-family="Times,serif" font-size="14.00">created_at :datetime</text>
<text text-anchor="start" x="458" y="-406.8" font-family="Times,serif" font-size="14.00">updated_at :datetime</text>
</g>
<!-- User -->
<g id="node5" class="node"><title>User</title>
<path fill="none" stroke="black" d="M244,-391.5C244,-391.5 420,-391.5 420,-391.5 426,-391.5 432,-397.5 432,-403.5 432,-403.5 432,-545.5 432,-545.5 432,-551.5 426,-557.5 420,-557.5 420,-557.5 244,-557.5 244,-557.5 238,-557.5 232,-551.5 232,-545.5 232,-545.5 232,-403.5 232,-403.5 232,-397.5 238,-391.5 244,-391.5"/>
<text text-anchor="middle" x="332" y="-542.3" font-family="Times,serif" font-size="14.00">User</text>
<polyline fill="none" stroke="black" points="232,-534.5 432,-534.5 "/>
<text text-anchor="start" x="240" y="-519.3" font-family="Times,serif" font-size="14.00">id :INTEGER</text>
<text text-anchor="start" x="240" y="-504.3" font-family="Times,serif" font-size="14.00">email :varchar</text>
<text text-anchor="start" x="240" y="-489.3" font-family="Times,serif" font-size="14.00">encrypted_password :varchar</text>
<text text-anchor="start" x="240" y="-474.3" font-family="Times,serif" font-size="14.00">reset_password_token :varchar</text>
<text text-anchor="start" x="240" y="-459.3" font-family="Times,serif" font-size="14.00">reset_password_sent_at :datetime</text>
<text text-anchor="start" x="240" y="-444.3" font-family="Times,serif" font-size="14.00">remember_created_at :datetime</text>
<text text-anchor="start" x="240" y="-429.3" font-family="Times,serif" font-size="14.00">created_at :datetime</text>
<text text-anchor="start" x="240" y="-414.3" font-family="Times,serif" font-size="14.00">updated_at :datetime</text>
<text text-anchor="start" x="240" y="-399.3" font-family="Times,serif" font-size="14.00">avatar :varchar</text>
</g>
<!-- User&#45;&gt;Question -->
<g id="edge3" class="edge"><title>User&#45;&gt;Question</title>
<path fill="none" stroke="#285b02" d="M269.391,-384.53C255.457,-364.728 240.902,-344.045 227.682,-325.258"/>
<ellipse fill="none" stroke="#285b02" cx="271.8" cy="-387.952" rx="4.00002" ry="4.00002"/>
<polygon fill="#285b02" stroke="#285b02" points="227.661,-325.229 225.586,-314.461 224.784,-321.14 221.906,-317.051 221.906,-317.051 221.906,-317.051 224.784,-321.14 218.226,-319.641 227.661,-325.229 227.661,-325.229"/>
</g>
<!-- User&#45;&gt;QuestionComment -->
<g id="edge4" class="edge"><title>User&#45;&gt;QuestionComment</title>
<path fill="none" stroke="#24be1b" d="M301.106,-383.651C298.194,-374.03 295.429,-364.345 293,-355 270.572,-268.697 275.951,-244.673 255,-158 252.903,-149.325 250.519,-140.263 248.048,-131.319"/>
<ellipse fill="none" stroke="#24be1b" cx="302.294" cy="-387.523" rx="4.00001" ry="4.00001"/>
<polygon fill="#24be1b" stroke="#24be1b" points="248.046,-131.312 249.675,-120.468 246.694,-126.499 245.342,-121.685 245.342,-121.685 245.342,-121.685 246.694,-126.499 241.01,-122.902 248.046,-131.312 248.046,-131.312"/>
</g>
<!-- Userparametr -->
<g id="node7" class="node"><title>Userparametr</title>
<path fill="none" stroke="black" d="M314,-158.5C314,-158.5 464,-158.5 464,-158.5 470,-158.5 476,-164.5 476,-170.5 476,-170.5 476,-342.5 476,-342.5 476,-348.5 470,-354.5 464,-354.5 464,-354.5 314,-354.5 314,-354.5 308,-354.5 302,-348.5 302,-342.5 302,-342.5 302,-170.5 302,-170.5 302,-164.5 308,-158.5 314,-158.5"/>
<text text-anchor="middle" x="389" y="-339.3" font-family="Times,serif" font-size="14.00">Userparametr</text>
<polyline fill="none" stroke="black" points="302,-331.5 476,-331.5 "/>
<text text-anchor="start" x="310" y="-316.3" font-family="Times,serif" font-size="14.00">id :INTEGER</text>
<text text-anchor="start" x="310" y="-301.3" font-family="Times,serif" font-size="14.00">firstname :varchar</text>
<text text-anchor="start" x="310" y="-286.3" font-family="Times,serif" font-size="14.00">lastname :varchar</text>
<text text-anchor="start" x="310" y="-271.3" font-family="Times,serif" font-size="14.00">age :integer</text>
<text text-anchor="start" x="310" y="-256.3" font-family="Times,serif" font-size="14.00">user_id :integer</text>
<text text-anchor="start" x="310" y="-241.3" font-family="Times,serif" font-size="14.00">avatar_file_name :varchar</text>
<text text-anchor="start" x="310" y="-226.3" font-family="Times,serif" font-size="14.00">avatar_content_type :varchar</text>
<text text-anchor="start" x="310" y="-211.3" font-family="Times,serif" font-size="14.00">avatar_file_size :integer</text>
<text text-anchor="start" x="310" y="-196.3" font-family="Times,serif" font-size="14.00">avatar_updated_at :datetime</text>
<text text-anchor="start" x="310" y="-181.3" font-family="Times,serif" font-size="14.00">created_at :datetime</text>
<text text-anchor="start" x="310" y="-166.3" font-family="Times,serif" font-size="14.00">updated_at :datetime</text>
</g>
<!-- User&#45;&gt;Userparametr -->
<g id="edge2" class="edge"><title>User&#45;&gt;Userparametr</title>
<path fill="none" stroke="#f25f60" d="M355.792,-383.342C357.583,-376.556 359.399,-369.672 361.212,-362.803"/>
<ellipse fill="none" stroke="#f25f60" cx="354.733" cy="-387.356" rx="4.00001" ry="4.00001"/>
<ellipse fill="#f25f60" stroke="#f25f60" cx="362.315" cy="-358.621" rx="4.00001" ry="4.00001"/>
</g>
<!-- Image -->
<g id="node8" class="node"><title>Image</title>
<ellipse fill="none" stroke="black" cx="527" cy="-256.5" rx="33.2948" ry="18"/>
<text text-anchor="middle" x="527" y="-252.8" font-family="Times,serif" font-size="14.00">Image</text>
</g>
<!-- User&#45;&gt;Image -->
<g id="edge5" class="edge"><title>User&#45;&gt;Image</title>
<path fill="none" stroke="#6f377c" d="M438.365,-392.626C462.937,-373.64 482.676,-357.999 485,-355 501.515,-333.689 512.87,-304.896 519.569,-284.132"/>
<ellipse fill="none" stroke="#6f377c" cx="435.188" cy="-395.076" rx="4.00002" ry="4.00002"/>
<polygon fill="#6f377c" stroke="#6f377c" points="519.632,-283.928 526.87,-275.691 521.1,-279.149 522.569,-274.369 522.569,-274.369 522.569,-274.369 521.1,-279.149 518.267,-273.048 519.632,-283.928 519.632,-283.928"/>
</g>
<!-- ApplicationRecord -->
<g id="node6" class="node"><title>ApplicationRecord</title>
<ellipse fill="none" stroke="black" cx="745" cy="-474.5" rx="77.1866" ry="18"/>
<text text-anchor="middle" x="745" y="-470.8" font-family="Times,serif" font-size="14.00">ApplicationRecord</text>
</g>
</g>
</svg>
