<?xml version="1.0" encoding="UTF-8" standalone="no"?>
<!DOCTYPE svg PUBLIC "-//W3C//DTD SVG 1.1//EN"
 "http://www.w3.org/Graphics/SVG/1.1/DTD/svg11.dtd">
<!-- Generated by graphviz version 2.38.0 (20140413.2041)
 -->
<!-- Title: models_diagram Pages: 1 -->
<svg width="588pt" height="230pt"
 viewBox="0.00 0.00 588.34 230.00" xmlns="http://www.w3.org/2000/svg" xmlns:xlink="http://www.w3.org/1999/xlink">
<g id="graph0" class="graph" transform="scale(1 1) rotate(0) translate(4 226)">
<title>models_diagram</title>
<polygon fill="none" stroke="none" points="-4,4 -4,-226 584.343,-226 584.343,4 -4,4"/>
<!-- _diagram_info -->
<g id="node1" class="node"><title>_diagram_info</title>
<text text-anchor="start" x="8" y="-207.6" font-family="Times,serif" font-size="13.00">Models diagram</text>
<text text-anchor="start" x="8" y="-193.6" font-family="Times,serif" font-size="13.00">Date: Feb 07 2019 &#45; 22:57</text>
<text text-anchor="start" x="8" y="-179.6" font-family="Times,serif" font-size="13.00">Migration version: 20190207163126</text>
<text text-anchor="start" x="8" y="-165.6" font-family="Times,serif" font-size="13.00">Generated by RailRoady 1.5.3</text>
<text text-anchor="start" x="8" y="-151.6" font-family="Times,serif" font-size="13.00">http://railroady.prestonlee.com</text>
</g>
<!-- Question -->
<g id="node2" class="node"><title>Question</title>
<ellipse fill="none" stroke="black" cx="145" cy="-90" rx="42.4939" ry="18"/>
<text text-anchor="middle" x="145" y="-86.3" font-family="Times,serif" font-size="14.00">Question</text>
</g>
<!-- QuestionComment -->
<g id="node3" class="node"><title>QuestionComment</title>
<ellipse fill="none" stroke="black" cx="180" cy="-18" rx="77.9862" ry="18"/>
<text text-anchor="middle" x="180" y="-14.3" font-family="Times,serif" font-size="14.00">QuestionComment</text>
</g>
<!-- Question&#45;&gt;QuestionComment -->
<g id="edge1" class="edge"><title>Question&#45;&gt;QuestionComment</title>
<path fill="none" stroke="#63e7b9" d="M157.087,-64.8269C160.243,-58.5146 163.659,-51.6811 166.867,-45.2658"/>
<ellipse fill="none" stroke="#63e7b9" cx="155.261" cy="-68.4772" rx="4.00002" ry="4.00002"/>
<polygon fill="#63e7b9" stroke="#63e7b9" points="166.89,-45.2196 175.387,-38.2878 169.126,-40.7474 171.362,-36.2753 171.362,-36.2753 171.362,-36.2753 169.126,-40.7474 167.337,-34.2628 166.89,-45.2196 166.89,-45.2196"/>
</g>
<!-- AdminUser -->
<g id="node4" class="node"><title>AdminUser</title>
<ellipse fill="none" stroke="black" cx="356" cy="-183" rx="51.9908" ry="18"/>
<text text-anchor="middle" x="356" y="-179.3" font-family="Times,serif" font-size="14.00">AdminUser</text>
</g>
<!-- User -->
<g id="node5" class="node"><title>User</title>
<ellipse fill="none" stroke="black" cx="259" cy="-183" rx="27.0966" ry="18"/>
<text text-anchor="middle" x="259" y="-179.3" font-family="Times,serif" font-size="14.00">User</text>
</g>
<!-- User&#45;&gt;Question -->
<g id="edge3" class="edge"><title>User&#45;&gt;Question</title>
<path fill="none" stroke="#e134ea" d="M240.458,-160.811C235.063,-155.103 229,-149.101 223,-144 208.746,-131.881 191.674,-120.02 177.141,-110.602"/>
<ellipse fill="none" stroke="#e134ea" cx="243.304" cy="-163.894" rx="4.00002" ry="4.00002"/>
<polygon fill="#e134ea" stroke="#e134ea" points="176.9,-110.448 170.887,-101.278 172.684,-107.761 168.468,-105.073 168.468,-105.073 168.468,-105.073 172.684,-107.761 166.049,-108.867 176.9,-110.448 176.9,-110.448"/>
</g>
<!-- User&#45;&gt;QuestionComment -->
<g id="edge4" class="edge"><title>User&#45;&gt;QuestionComment</title>
<path fill="none" stroke="#1af518" d="M247.364,-157.992C232.79,-127.92 207.902,-76.5699 192.801,-45.4129"/>
<ellipse fill="none" stroke="#1af518" cx="249.246" cy="-161.874" rx="4.00002" ry="4.00002"/>
<polygon fill="#1af518" stroke="#1af518" points="192.629,-45.0579 192.317,-34.0965 190.449,-40.5585 188.268,-36.0591 188.268,-36.0591 188.268,-36.0591 190.449,-40.5585 184.218,-38.0218 192.629,-45.0579 192.629,-45.0579"/>
</g>
<!-- Userparametr -->
<g id="node7" class="node"><title>Userparametr</title>
<ellipse fill="none" stroke="black" cx="302" cy="-90" rx="59.2899" ry="18"/>
<text text-anchor="middle" x="302" y="-86.3" font-family="Times,serif" font-size="14.00">Userparametr</text>
</g>
<!-- User&#45;&gt;Userparametr -->
<g id="edge2" class="edge"><title>User&#45;&gt;Userparametr</title>
<path fill="none" stroke="#44c56f" d="M270.353,-157.974C276.581,-144.793 284.284,-128.493 290.53,-115.274"/>
<ellipse fill="none" stroke="#44c56f" cx="268.596" cy="-161.693" rx="4.00002" ry="4.00002"/>
<ellipse fill="#44c56f" stroke="#44c56f" cx="292.309" cy="-111.51" rx="4.00002" ry="4.00002"/>
</g>
<!-- Image -->
<g id="node8" class="node"><title>Image</title>
<ellipse fill="none" stroke="black" cx="412" cy="-90" rx="33.2948" ry="18"/>
<text text-anchor="middle" x="412" y="-86.3" font-family="Times,serif" font-size="14.00">Image</text>
</g>
<!-- User&#45;&gt;Image -->
<g id="edge5" class="edge"><title>User&#45;&gt;Image</title>
<path fill="none" stroke="#1497b6" d="M276.724,-160.402C282.179,-154.596 288.477,-148.646 295,-144 308.789,-134.179 347.38,-117.364 376.501,-105.305"/>
<ellipse fill="none" stroke="#1497b6" cx="273.841" cy="-163.605" rx="4.00002" ry="4.00002"/>
<polygon fill="#1497b6" stroke="#1497b6" points="376.715,-105.217 387.675,-105.578 381.339,-103.317 385.964,-101.416 385.964,-101.416 385.964,-101.416 381.339,-103.317 384.253,-97.2535 376.715,-105.217 376.715,-105.217"/>
</g>
<!-- ApplicationRecord -->
<g id="node6" class="node"><title>ApplicationRecord</title>
<ellipse fill="none" stroke="black" cx="503" cy="-183" rx="77.1866" ry="18"/>
<text text-anchor="middle" x="503" y="-179.3" font-family="Times,serif" font-size="14.00">ApplicationRecord</text>
</g>
</g>
</svg>
